HIERARCHY
ROOT Hips
{
	OFFSET 0.00 0.00 0.00
	CHANNELS 6 Xposition Yposition Zposition Xrotation Yrotation Zrotation
	JOINT Spine
	{
		OFFSET 0.00000 1.92919 2.89379
		CHANNELS 3 Xrotation Yrotation Zrotation
		JOINT Spine1
		{
			OFFSET 0.00000 0.67000 3.79977
			CHANNELS 3 Xrotation Yrotation Zrotation
			JOINT Spine2
			{
				OFFSET 0.00000 0.33628 3.84370
				CHANNELS 3 Xrotation Yrotation Zrotation
				JOINT Spine3
				{
					OFFSET 0.00000 0.00000 3.85838
					CHANNELS 3 Xrotation Yrotation Zrotation
					JOINT Neck
					{
						OFFSET 0.00000 -1.44688 10.12826
						CHANNELS 3 Xrotation Yrotation Zrotation
						JOINT Head
						{
							OFFSET 0.00000 -0.92125 5.22468
							CHANNELS 3 Xrotation Yrotation Zrotation
							End Site
							{
								OFFSET 0.00000 0.00001 6.24576
							}
						}
					}
					JOINT RightShoulder
					{
						OFFSET -1.19724 -1.99539 6.46510
						CHANNELS 3 Xrotation Yrotation Zrotation
						JOINT RightArm
						{
							OFFSET -5.94629 0.00000 0.00000
							CHANNELS 3 Xrotation Yrotation Zrotation
							JOINT RightForeArm
							{
								OFFSET -11.02134 0.00000 0.00000
								CHANNELS 3 Xrotation Yrotation Zrotation
								JOINT RightHand
								{
									OFFSET -10.43440 0.00000 0.00000
									CHANNELS 3 Xrotation Yrotation Zrotation
									JOINT RightHandEnd
									{
										OFFSET -2.82937 0.00000 0.00000
										CHANNELS 3 Xrotation Yrotation Zrotation
										End Site
										{
											OFFSET -2.82937 0.00000 0.00000
										}
									}
									JOINT RightHandThumb1
									{
										OFFSET -1.13175 -1.88625 -0.75450
										CHANNELS 3 Yrotation Xrotation Zrotation
										End Site
										{
											OFFSET -2.73296 -0.73229 0.00000
										}
									}
								}
							}
						}
					}
					JOINT LeftShoulder
					{
						OFFSET 1.19724 -1.99539 6.46510
						CHANNELS 3 Xrotation Yrotation Zrotation
						JOINT LeftArm
						{
							OFFSET 5.94629 0.00000 0.00000
							CHANNELS 3 Xrotation Yrotation Zrotation
							JOINT LeftForeArm
							{
								OFFSET 11.02134 0.00000 0.00000
								CHANNELS 3 Xrotation Yrotation Zrotation
								JOINT LeftHand
								{
									OFFSET 10.43440 0.00000 0.00000
									CHANNELS 3 Xrotation Yrotation Zrotation
									JOINT LeftHandEnd
									{
										OFFSET 2.82937 0.00000 0.00000
										CHANNELS 3 Xrotation Yrotation Zrotation
										End Site
										{
											OFFSET 2.82937 0.00000 0.00000
										}
									}
									JOINT LeftHandThumb1
									{
										OFFSET 1.13175 -1.88625 -0.75450
										CHANNELS 3 Yrotation Xrotation Zrotation
										End Site
										{
											OFFSET 2.73296 -0.73229 0.00000
										}
									}
								}
							}
						}
					}
				}
			}
		}
	}
	JOINT RightUpLeg
	{
		OFFSET -3.55181 0.00000 -1.03761
		CHANNELS 3 Xrotation Yrotation Zrotation
		JOINT RightLeg
		{
			OFFSET 0.00001 0.00000 -15.86106
			CHANNELS 3 Xrotation Yrotation Zrotation
			JOINT RightFoot
			{
				OFFSET 0.00001 0.00000 -16.30493
				CHANNELS 3 Xrotation Yrotation Zrotation
				JOINT RightToeBase
				{
					OFFSET 0.00000 -5.76215 -2.09725
					CHANNELS 3 Xrotation Yrotation Zrotation
					End Site
					{
						OFFSET 0.00000 -2.87338 -0.00000
					}
				}
			}
		}
	}
	JOINT LeftUpLeg
	{
		OFFSET 3.55181 0.00000 -1.03761
		CHANNELS 3 Xrotation Yrotation Zrotation
		JOINT LeftLeg
		{
			OFFSET 0.00001 0.00000 -15.86106
			CHANNELS 3 Xrotation Yrotation Zrotation
			JOINT LeftFoot
			{
				OFFSET 0.00001 0.00000 -16.30493
				CHANNELS 3 Xrotation Yrotation Zrotation
				JOINT LeftToeBase
				{
					OFFSET 0.00000 -5.76215 -2.09725
					CHANNELS 3 Xrotation Yrotation Zrotation
					End Site
					{
						OFFSET 0.00000 -2.87338 -0.00000
					}
				}
			}
		}
	}
}
MOTION
Frames: 6
Frame Time: 0.008342
 -23.2886 -15.8543 35.2959 6.5624 -2.9505 91.1133 2.1312 2.8190 -0.5395 -0.3342 0.3941 -0.0000 7.3810 2.3627 -0.6391 3.2664 0.9513 -1.7114 8.4485 2.4920 4.5630 0.2142 2.1687 7.9413 10.8527 -2.6045 8.9665 19.1931 -49.6566 31.1503 -0.0000 0.0001 83.5757 -26.7153 28.7570 0.1260 -0.0000 -0.0000 -0.0000 -0.0000 -0.0000 -0.0000 10.3292 5.8776 -6.2569 9.0564 42.8644 -26.8342 -0.0000 -0.0001 -80.0698 -13.4342 -35.7749 -5.6143 -0.0000 -0.0000 0.0000 0.0000 -0.0000 0.0000 -11.5500 4.8945 -10.3795 36.0445 0.0000 0.0000 -16.1608 4.0853 -19.3763 -4.7449 0.0000 -0.0000 -15.4950 6.0565 26.3160 17.4364 0.0000 0.0000 7.6078 -2.9731 1.9485 -8.6064 0.0000 -0.0000
 -23.3177 -15.8545 35.3102 6.4781 -2.9532 91.0384 2.1054 2.8108 -0.5325 -0.3583 0.4004 0.0038 7.4364 2.3525 -0.6055 3.2716 0.9212 -1.6823 8.4396 2.6045 4.6387 0.0525 2.4313 8.0079 10.7962 -2.7809 8.9341 17.7565 -49.2677 29.6869 -0.0000 0.0001 83.3911 -26.5514 28.4915 0.0252 0.0000 0.0000 -0.0000 0.0000 0.0000 0.0000 10.4524 5.8810 -6.1181 10.2690 43.3416 -27.8449 -0.0000 -0.0001 -80.3111 -13.5591 -35.8561 -5.7930 -0.0000 0.0000 -0.0000 -0.0000 -0.0000 0.0000 -11.1676 4.7940 -10.4814 35.2960 0.0000 0.0000 -16.2268 4.1803 -19.0497 -4.4355 0.0000 -0.0000 -15.2984 6.0665 26.4686 16.9269 0.0000 0.0000 7.7440 -3.0227 1.8236 -8.5804 0.0000 -0.0000
 -23.3576 -15.8598 35.3247 6.3567 -2.9209 90.9789 2.0669 2.7735 -0.5249 -0.3831 0.4064 0.0064 7.4952 2.3356 -0.5815 3.2737 0.8834 -1.6376 8.4012 2.7087 4.6989 -0.1405 2.7088 8.0670 10.7441 -2.9588 8.8992 16.2996 -48.8818 28.2335 -0.0000 0.0001 83.2037 -26.4598 28.1985 -0.0527 -0.0000 0.0000 -0.0000 0.0000 -0.0000 -0.0000 10.5806 5.8601 -6.0056 11.4908 43.8413 -28.8751 -0.0000 -0.0001 -80.5771 -13.6446 -35.8902 -5.9535 0.0000 0.0000 -0.0000 0.0000 0.0000 0.0000 -10.8164 4.6582 -10.6834 34.4997 0.0000 0.0000 -16.2324 4.3169 -18.6911 -4.0780 0.0000 -0.0000 -15.1746 6.0153 26.6548 16.4551 0.0000 0.0000 7.9294 -3.0447 1.6527 -8.5525 0.0000 -0.0000
 -23.4058 -15.8688 35.3400 6.2163 -2.8860 90.9325 2.0431 2.7242 -0.5184 -0.4017 0.4121 0.0094 7.5527 2.3082 -0.5586 3.2727 0.8410 -1.5937 8.3338 2.8063 4.7531 -0.3601 2.9974 8.1162 10.6982 -3.1249 8.8750 14.8167 -48.5199 26.7842 -0.0000 0.0001 83.0208 -26.4471 27.8608 -0.1147 -0.0000 0.0000 0.0000 0.0000 0.0000 0.0000 10.7403 5.8203 -5.8890 12.7196 44.3407 -29.9688 -0.0000 -0.0001 -80.8529 -13.6964 -35.8859 -6.0890 0.0000 -0.0000 -0.0000 0.0000 0.0000 0.0000 -10.4647 4.5093 -10.9890 33.6666 0.0000 0.0000 -16.1821 4.4937 -18.2889 -3.6731 0.0000 -0.0000 -15.0769 5.9253 26.8821 16.0055 0.0000 0.0000 8.1707 -3.0483 1.4388 -8.5175 0.0000 -0.0000
 -23.4624 -15.8822 35.3562 6.0429 -2.8547 90.9020 2.0420 2.6481 -0.5123 -0.4122 0.4231 0.0136 7.6043 2.2619 -0.5432 3.2688 0.7965 -1.5446 8.2380 2.8971 4.7946 -0.6021 3.2914 8.1558 10.6555 -3.2758 8.8550 13.3057 -48.1943 25.3389 -0.0000 0.0001 82.8462 -26.5142 27.4630 -0.1679 -0.0000 0.0000 -0.0000 0.0000 -0.0000 -0.0000 10.9182 5.7577 -5.7819 13.9591 44.8437 -31.1079 -0.0000 -0.0001 -81.1407 -13.7196 -35.8381 -6.1965 0.0000 0.0000 0.0000 0.0000 -0.0000 0.0000 -10.1080 4.3281 -11.3943 32.7970 0.0000 0.0000 -16.0695 4.7034 -17.8527 -3.2312 0.0000 -0.0000 -15.0084 5.7790 27.1375 15.6001 0.0000 0.0000 8.4554 -3.0448 1.1894 -8.4700 0.0000 -0.0000
 -23.5293 -15.8997 35.3722 5.8382 -2.8002 90.8847 2.0413 2.5557 -0.5044 -0.4164 0.4118 0.0128 7.6484 2.2207 -0.5329 3.2610 0.7464 -1.4900 8.1146 2.9808 4.8229 -0.8612 3.5858 8.1849 10.6218 -3.4087 8.8397 11.7547 -47.9125 23.8965 -0.0000 0.0001 82.6832 -26.6567 26.9999 -0.2203 0.0000 -0.0000 0.0000 -0.0000 -0.0000 0.0000 11.1113 5.6745 -5.6852 15.2089 45.3385 -32.2901 -0.0000 -0.0001 -81.4376 -13.7241 -35.7520 -6.2716 -0.0000 -0.0000 -0.0000 -0.0000 0.0000 0.0000 -9.7915 4.1160 -11.8861 31.9167 0.0000 0.0000 -15.8987 4.9370 -17.3864 -2.7656 0.0000 -0.0000 -15.0079 5.5789 27.3958 15.2542 0.0000 0.0000 8.7773 -3.0395 0.9334 -8.4073 0.0000 -0.0000
